<?xml version="1.0" encoding="utf-8"?>
<!-- Generator: Adobe Illustrator 16.0.0, SVG Export Plug-In . SVG Version: 6.00 Build 0)  -->
<!DOCTYPE svg PUBLIC "-//W3C//DTD SVG 1.1//EN" "http://www.w3.org/Graphics/SVG/1.1/DTD/svg11.dtd">
<svg version="1.1" id="Layer_1" xmlns="http://www.w3.org/2000/svg" xmlns:xlink="http://www.w3.org/1999/xlink" x="0px" y="0px"
	 width="256px" height="114px" viewBox="0 0 256 114" enable-background="new 0 0 256 114" xml:space="preserve">
<g>
	<g>
		<g>
			<path fill="#00ACE3" d="M167.512,67.057c2.936,2.965,6.947,4.61,11.119,4.633l0.184,3v-3c8,0,15.478-6.971,15.522-15.539
				c0.045-8.613-7.024-15.658-15.64-15.703c-8.654,0-15.659,6.97-15.702,15.537C162.973,60.156,164.576,64.089,167.512,67.057z"/>
		</g>
		<g>
			<path fill="#00ACE3" d="M185.082,90.296c18.811,0,34.195-15.091,34.299-33.904c0.049-9.161-3.474-17.602-9.918-24.114
				c-6.443-6.514-15.039-9.981-24.201-9.981h-0.191c-0.959,0-1.904,0.05-2.844,0.127c17.17,1.442,30.64,16.014,30.545,33.554
				c-0.099,18.383-15.139,33.319-33.524,33.319h-0.175c-1.069,0-2.127-0.057-3.17-0.156c2.896,0.762,5.912,1.156,8.996,1.156
				L185.082,90.296L185.082,90.296z"/>
		</g>
		<g>
			<path fill="#00ACE3" d="M191.831,100.296h0.229c23.504,0,42.729-19.257,42.856-42.765c0.062-11.446-4.341-22.309-12.394-30.445
				c-8.051-8.139-18.789-12.79-30.235-12.79h-0.233c-5.426,0-10.617,1.03-15.404,2.887c2.719-0.576,5.533-0.887,8.42-0.887h0.224
				c10.765,0,20.862,4.217,28.435,11.869c7.571,7.652,11.709,17.537,11.652,28.302c-0.122,22.104-18.199,39.829-40.299,39.829
				h-0.216c-6.16,0-12.099-1.345-17.474-3.925C174.498,97.445,182.947,100.296,191.831,100.296z"/>
		</g>
		<g>
			<path fill="#00ACE3" d="M198.76,3.573c-15.688,0-29.796,6.762-39.57,17.529c8.692-7.944,20.235-12.807,32.867-12.807h0.264
				c13.051,0,25.293,5.227,34.472,14.504c9.179,9.276,14.194,21.709,14.127,34.758c-0.146,26.799-22.062,48.738-48.856,48.738H191.8
				c-10.739,0-20.929-3.631-29.317-10.085c9.529,8.819,22.271,14.216,36.277,14.216c29.506,0,53.426-23.919,53.426-53.426
				S228.266,3.573,198.76,3.573z"/>
		</g>
		<g>
			<path fill="#00ACE3" d="M151.73,55.649c-0.08,15.176,12.199,27.646,27.371,27.646h0.145c15.096,0,27.443-12.259,27.525-27.352
				c0.08-15.175-12.201-27.648-27.377-27.648h-0.149C164.15,28.296,151.811,40.555,151.73,55.649z M178.609,34.296h0.121
				c11.92,0,21.568,9.691,21.506,21.613c-0.063,11.858-9.764,21.387-21.621,21.387H178.5c-5.773,0-11.191-2.11-15.254-6.218
				c-4.063-4.105-6.282-9.523-6.251-15.299C157.055,43.921,166.751,34.296,178.609,34.296z"/>
		</g>
	</g>
	<g enable-background="new    ">
		<path fill="#666666" d="M240.586,14.951v0.558h-0.996v2.429h-0.597v-2.429h-0.995v-0.558H240.586z"/>
		<path fill="#666666" d="M241.029,17.938v-2.986h0.199l1.294,1.474l1.296-1.474h0.199v2.986h-0.598l-0.002-1.731l-0.896,0.995
			l-0.896-0.995v1.731H241.029z"/>
	</g>
	<g enable-background="new    ">
		<path fill="#4D4D4D" d="M5.117,51.992V35.581l12.065-0.011v3.065h-8.78v3.503h6.58v3.055h-6.58v3.733h8.758v3.065H5.117z"/>
		<path fill="#4D4D4D" d="M20.489,51.992V35.57h1.095l10.292,10.291V35.57h3.284v16.422h-1.204L23.773,41.811v10.182H20.489z"/>
		<path fill="#4D4D4D" d="M51.964,35.57v3.065H46.49v13.356h-3.284V38.636h-5.474V35.57H51.964z"/>
		<path fill="#4D4D4D" d="M54.362,51.992V35.581l12.065-0.011v3.065h-8.78v3.503h6.58v3.055h-6.58v3.733h8.758v3.065H54.362z"/>
		<path fill="#4D4D4D" d="M79.62,44.832l4.095,7.16h-3.766l-3.931-6.788h-3v6.788h-3.284V35.57h7.16
			c3.832,0,5.748,1.576,5.748,4.729C82.641,42.672,81.634,44.183,79.62,44.832z M73.018,42.139h4.599
			c1.321-0.021,2-0.624,2.036-1.807c-0.037-1.08-0.705-1.642-2.003-1.686h-4.631V42.139z"/>
		<path fill="#4D4D4D" d="M85.422,51.992V35.57h7.16c3.832,0,5.748,1.576,5.748,4.729c0,3.27-1.912,4.904-5.737,4.904h-3.887v6.788
			H85.422z M88.707,42.139h4.599c1.321-0.021,2-0.624,2.036-1.807c-0.037-1.08-0.705-1.642-2.003-1.686h-4.631V42.139z"/>
		<path fill="#4D4D4D" d="M110.636,44.832l4.095,7.16h-3.766l-3.931-6.788h-3v6.788h-3.284V35.57h7.16
			c3.832,0,5.748,1.576,5.748,4.729C113.658,42.672,112.65,44.183,110.636,44.832z M104.034,42.139h4.599
			c1.321-0.021,2-0.624,2.036-1.807c-0.037-1.08-0.705-1.642-2.003-1.686h-4.631V42.139z"/>
		<path fill="#4D4D4D" d="M116.438,35.559h3.273v16.434h-3.273V35.559z"/>
		<path fill="#4D4D4D" d="M131.896,36.117c0.84,0.365,1.625,0.912,2.354,1.643l-2.189,2.189c-0.729-0.876-1.752-1.313-3.065-1.313
			c-1.314,0-2.153,0.31-2.518,0.931c-0.365,0.62-0.365,1.149,0,1.587c0.365,0.438,1.204,0.767,2.518,0.985
			c1.387,0.146,2.646,0.603,3.777,1.369c1.131,0.766,1.697,1.988,1.697,3.667c0,1.313-0.604,2.445-1.813,3.395
			c-1.208,0.948-2.615,1.423-4.221,1.423c-1.525,0-2.799-0.219-3.821-0.657c-1.022-0.438-1.898-1.021-2.627-1.751l2.189-2.19
			c0.73,0.876,1.971,1.388,3.722,1.533c1.46,0,2.371-0.311,2.732-0.931s0.361-1.241,0-1.861s-1.271-1.003-2.732-1.149
			c-1.313-0.146-2.518-0.548-3.613-1.204c-1.095-0.657-1.642-1.788-1.642-3.395c0-1.452,0.622-2.618,1.867-3.498
			c1.244-0.879,2.523-1.318,3.837-1.318C129.875,35.57,131.058,35.752,131.896,36.117z"/>
		<path fill="#4D4D4D" d="M137.36,51.992V35.581l12.065-0.011v3.065h-8.781v3.503h6.58v3.055h-6.58v3.733h8.759v3.065H137.36z"/>
	</g>
	<g enable-background="new    ">
		<path fill="#4D4D4D" d="M79.871,62.476v3.065h-5.474v13.356h-3.284V65.541h-5.474v-3.065H79.871z"/>
		<path fill="#4D4D4D" d="M83.835,76.538c-1.57-1.572-2.354-3.523-2.354-5.852c0-2.336,0.784-4.288,2.354-5.857
			c1.569-1.569,3.521-2.354,5.857-2.354s4.288,0.784,5.857,2.354s2.354,3.521,2.354,5.857s-0.785,4.288-2.354,5.857
			s-3.522,2.354-5.857,2.354S85.404,78.111,83.835,76.538z M89.703,75.832c1.452,0,2.635-0.493,3.547-1.479
			c0.913-0.985,1.369-2.207,1.369-3.667s-0.456-2.683-1.369-3.668c-0.912-0.985-2.102-1.478-3.569-1.478
			c-1.453,0-2.635,0.492-3.547,1.478s-1.369,2.208-1.369,3.668s0.456,2.682,1.369,3.667S88.236,75.832,89.703,75.832z"/>
		<path fill="#4D4D4D" d="M103.377,62.476V72c0,1.241,0.365,2.153,1.095,2.737s1.642,0.876,2.737,0.876
			c1.095,0,2.007-0.292,2.737-0.876c0.729-0.584,1.095-1.496,1.095-2.737v-9.524h3.285v10.4c0,1.679-0.675,3.103-2.025,4.27
			c-1.351,1.168-3.047,1.752-5.091,1.752c-2.043,0-3.741-0.584-5.091-1.752c-1.35-1.167-2.025-2.591-2.025-4.27v-10.4H103.377z"/>
		<path fill="#4D4D4D" d="M119.422,76.538c-1.573-1.565-2.359-3.527-2.359-5.885c0.007-2.307,0.795-4.246,2.365-5.818
			c1.569-1.573,3.514-2.359,5.835-2.359c2.343,0,4.354,0.729,6.032,2.189l-2.189,2.397c-1.117-0.876-2.398-1.313-3.843-1.313
			c-1.475,0.007-2.663,0.467-3.564,1.379c-0.901,0.913-1.352,2.08-1.352,3.504c0.007,1.525,0.463,2.736,1.369,3.635
			c0.905,0.897,2.095,1.347,3.569,1.347c1.474,0,2.748-0.435,3.821-1.303l2.189,2.397c-1.672,1.46-3.682,2.189-6.032,2.189
			C122.941,78.891,120.995,78.104,119.422,76.538z"/>
		<path fill="#4D4D4D" d="M134.832,78.897V62.476h3.283v6.568h7.653v-6.58h3.284v16.423l-3.284,0.011v-6.788h-7.653v6.788H134.832z"
			/>
	</g>
</g>
</svg>
